<?xml version="1.0" standalone="no"?>
<!DOCTYPE svg PUBLIC "-//W3C//DTD SVG 20010904//EN"
 "http://www.w3.org/TR/2001/REC-SVG-20010904/DTD/svg10.dtd">
<svg version="1.0" xmlns="http://www.w3.org/2000/svg"
 width="510.000000pt" height="523.000000pt" viewBox="0 0 510.000000 523.000000"
 preserveAspectRatio="xMidYMid meet">

<g transform="translate(0.000000,523.000000) scale(0.100000,-0.100000)"
fill="#000000" stroke="none">
<path d="M982 4839 c-101 -12 -201 -43 -306 -96 -72 -36 -108 -64 -194 -146
-142 -138 -192 -215 -240 -367 -43 -137 -43 -149 -40 -1630 3 -1318 4 -1419
21 -1474 52 -175 111 -279 221 -394 134 -139 248 -204 452 -256 55 -14 226
-16 1505 -16 1371 0 1448 1 1514 19 93 24 181 61 257 107 63 39 214 180 261
244 44 62 96 169 124 258 l28 87 0 1475 0 1475 -24 75 c-31 100 -75 192 -127
265 -48 69 -167 187 -237 234 -104 71 -252 122 -402 140 -109 13 -2702 13
-2813 0z m580 -392 c31 -14 85 -42 120 -63 35 -20 77 -44 93 -54 17 -9 134
-77 260 -150 127 -73 244 -140 260 -150 17 -9 102 -59 190 -110 88 -51 185
-106 215 -123 30 -16 60 -33 65 -37 6 -4 26 -17 45 -27 19 -11 107 -62 195
-113 88 -51 180 -104 205 -118 25 -14 62 -36 82 -49 21 -12 40 -23 42 -23 3 0
57 -31 122 -70 64 -38 118 -70 120 -70 2 0 31 -17 66 -37 77 -46 108 -64 223
-128 123 -68 242 -185 274 -270 33 -83 41 -247 16 -330 -46 -160 -117 -229
-390 -380 -27 -16 -67 -39 -87 -52 -21 -12 -39 -23 -42 -23 -3 0 -100 -56
-156 -90 -13 -8 -84 -49 -200 -115 -99 -57 -167 -96 -180 -105 -14 -9 -127
-74 -200 -115 -19 -11 -51 -30 -70 -41 -19 -12 -55 -33 -80 -47 -25 -13 -117
-66 -205 -117 -88 -51 -173 -101 -190 -110 -16 -10 -102 -59 -190 -110 -88
-51 -180 -104 -205 -118 -25 -13 -49 -28 -55 -32 -5 -4 -30 -19 -55 -32 -25
-14 -96 -55 -159 -91 -157 -92 -192 -102 -326 -101 -89 1 -121 5 -168 23 -93
37 -202 133 -251 222 -51 92 -56 136 -56 497 l0 334 30 30 c28 27 36 30 78 25
33 -3 72 -20 129 -54 98 -60 204 -103 338 -139 84 -22 121 -26 235 -26 292 0
519 97 717 305 109 116 175 249 209 425 16 87 18 224 4 290 -6 26 -15 70 -21
97 -18 81 -54 177 -114 297 -67 132 -90 168 -113 168 -9 0 -54 -24 -99 -53
-45 -28 -101 -64 -125 -79 -24 -14 -126 -79 -228 -143 -102 -65 -205 -129
-229 -144 -24 -14 -56 -36 -70 -49 l-26 -22 30 -22 c67 -48 171 -165 207 -234
60 -114 81 -207 76 -338 -5 -118 -23 -186 -73 -287 -36 -72 -51 -87 -96 -99
-29 -8 -46 -7 -73 4 -68 28 -73 88 -18 202 37 79 37 79 37 209 0 125 -1 133
-30 190 -31 61 -114 151 -175 190 -19 12 -69 34 -110 48 -92 33 -120 61 -120
121 0 23 6 50 13 59 13 18 87 67 417 273 113 71 237 149 275 174 39 25 80 50
90 57 11 6 85 53 165 103 151 96 197 113 251 92 56 -22 230 -317 297 -504 64
-176 76 -246 76 -448 0 -146 -4 -199 -18 -250 -9 -36 -21 -78 -25 -95 -38
-141 -139 -302 -268 -426 -159 -154 -346 -250 -602 -309 -73 -17 -390 -17
-462 0 -105 25 -218 61 -284 90 -37 17 -71 30 -76 30 -5 0 -9 -89 -9 -204 0
-233 4 -249 78 -328 110 -118 220 -126 387 -27 39 22 88 51 110 64 22 12 112
64 200 115 88 51 180 104 205 118 25 14 62 36 82 49 21 12 40 23 42 23 3 0 57
31 121 70 64 39 118 70 120 70 3 0 34 18 70 40 36 22 68 40 71 40 3 0 18 8 32
18 15 11 52 32 82 49 30 16 102 58 158 91 57 34 106 62 108 62 2 0 33 18 69
40 36 22 67 40 69 40 3 0 103 57 156 90 18 11 134 78 210 121 30 17 91 52 135
78 44 26 118 70 164 96 145 84 190 147 191 266 0 141 -47 192 -310 337 -25 13
-61 34 -80 46 -19 11 -51 30 -70 41 -63 36 -185 106 -200 115 -53 33 -153 90
-156 90 -2 0 -33 18 -69 40 -36 22 -67 40 -70 40 -2 0 -56 32 -121 70 -64 39
-118 70 -120 70 -2 0 -33 18 -69 40 -36 22 -67 40 -70 40 -2 0 -56 32 -121 70
-64 39 -118 70 -120 70 -2 0 -33 18 -69 40 -36 22 -67 40 -69 40 -2 0 -51 28
-108 61 -56 34 -116 70 -133 79 -31 18 -313 181 -400 232 -153 89 -239 107
-328 69 -75 -32 -114 -68 -147 -134 l-30 -60 0 -914 c0 -999 2 -971 -57 -994
-43 -17 -104 -4 -130 26 l-23 26 0 937 c0 607 4 953 11 982 36 158 186 310
344 349 22 6 90 9 150 7 93 -2 119 -7 167 -29z m553 -1438 c12 -23 21 -29 36
-24 26 9 175 8 189 0 16 -10 12 -47 -10 -82 -19 -32 -22 -33 -85 -33 -77 0
-77 2 -38 -117 l27 -83 63 0 c35 0 80 -7 101 -15 158 -66 181 -281 41 -382
-43 -31 -48 -38 -46 -70 2 -28 -2 -37 -20 -44 -19 -7 -25 -4 -38 20 l-15 29
-114 4 c-147 4 -157 11 -124 86 21 47 26 52 48 47 49 -12 138 -17 143 -9 3 5
-10 54 -29 109 l-33 100 -83 5 c-115 7 -159 33 -192 114 -20 48 -20 116 -1
163 8 19 40 60 70 89 46 44 55 57 49 77 -4 18 -1 28 13 36 27 16 31 14 48 -20z"/>
<path d="M2070 2818 c-43 -47 -10 -133 55 -140 17 -2 30 2 30 7 -1 24 -47 155
-55 155 -5 0 -18 -10 -30 -22z"/>
<path d="M2280 2545 c0 -24 56 -168 67 -172 36 -14 65 64 43 118 -13 31 -55
59 -90 59 -11 0 -20 -2 -20 -5z"/>
</g>
</svg>
